<svg width="1181" height="370" viewBox="0 0 1181 370" fill="none" xmlns="http://www.w3.org/2000/svg">
<path d="M0.310549 6.99998H211.811V83H93.3105V144H204.311V217H93.3105V288H216.311V364H0.310549V6.99998ZM250.311 6.99998H354.311L414.311 227H415.311V6.99998H502.311V364H400.311L338.311 143.5H337.311V364H250.311V6.99998ZM518.709 6.99998H616.209L653.709 276H654.709L692.209 6.99998H791.209L714.209 364H594.209L518.709 6.99998ZM802.475 6.99998H895.475V364H802.475V6.99998ZM1021.36 185.5C1021.36 209.5 1021.69 229.5 1022.36 245.5C1023.02 261.167 1024.36 273.667 1026.36 283C1028.69 292.333 1031.86 298.833 1035.86 302.5C1040.19 306.167 1045.86 308 1052.86 308C1059.86 308 1065.36 306.167 1069.36 302.5C1073.69 298.833 1076.86 292.333 1078.86 283C1081.19 273.667 1082.69 261.167 1083.36 245.5C1084.02 229.5 1084.36 209.5 1084.36 185.5C1084.36 161.5 1084.02 141.667 1083.36 126C1082.69 110 1081.19 97.3333 1078.86 88C1076.86 78.6666 1073.69 72.1666 1069.36 68.5C1065.36 64.8333 1059.86 63 1052.86 63C1045.86 63 1040.19 64.8333 1035.86 68.5C1031.86 72.1666 1028.69 78.6666 1026.36 88C1024.36 97.3333 1023.02 110 1022.36 126C1021.69 141.667 1021.36 161.5 1021.36 185.5ZM925.357 185.5C925.357 152.167 927.524 123.833 931.857 100.5C936.191 76.8333 943.357 57.6666 953.357 43C963.357 28 976.524 17.1667 992.857 10.5C1009.19 3.49998 1029.19 -2.24113e-05 1052.86 -2.24113e-05C1076.52 -2.24113e-05 1096.52 3.49998 1112.86 10.5C1129.19 17.1667 1142.36 28 1152.36 43C1162.36 57.6666 1169.52 76.8333 1173.86 100.5C1178.19 123.833 1180.36 152.167 1180.36 185.5C1180.36 218.833 1178.19 247.333 1173.86 271C1169.52 294.333 1162.36 313.5 1152.36 328.5C1142.36 343.167 1129.19 353.667 1112.86 360C1096.52 366.333 1076.52 369.5 1052.86 369.5C1029.19 369.5 1009.19 366.333 992.857 360C976.524 353.667 963.357 343.167 953.357 328.5C943.357 313.5 936.191 294.333 931.857 271C927.524 247.333 925.357 218.833 925.357 185.5Z" fill="white"/>
</svg>
