<?xml version="1.0" encoding="UTF-8"?>
<svg version="1.1" xmlns="http://www.w3.org/2000/svg" width="2697" height="648">
<path d="M0 0 C38.94 0 77.88 0 118 0 C122.59686621 5.25356138 126.95578128 10.43753669 131.125 16 C135.47997028 21.75604666 139.91950702 27.42181709 144.5 33 C148.94636266 38.41854481 153.26677165 43.9133857 157.5 49.5 C162.31970751 55.86035621 167.27676832 62.08661094 172.33374023 68.25952148 C175.64587594 72.31025191 178.89040072 76.401279 182.0625 80.5625 C185.58284562 85.17869514 189.17033813 89.72946911 192.8125 94.25 C197.10672005 99.58289919 201.29925961 104.98280091 205.4375 110.4375 C210.20987405 116.72469864 215.11828515 122.87842386 220.12475586 128.98022461 C224.01916125 133.74512349 227.78354299 138.59537163 231.5 143.5 C236.31909125 149.85954296 241.27595762 156.08461518 246.33154297 162.25732422 C250.50543449 167.36296708 254.54505381 172.55578015 258.546875 177.796875 C264.38196256 185.4360476 270.35867885 192.96688931 276.38305664 200.45727539 C281.15307933 206.38877635 285.83601442 212.37416316 290.4375 218.4375 C295.20998428 224.72461783 300.11828174 230.87841971 305.12475586 236.98022461 C309.01916125 241.74512349 312.78354299 246.59537163 316.5 251.5 C321.31909125 257.85954296 326.27595762 264.08461518 331.33154297 270.25732422 C335.50543449 275.36296708 339.54505381 280.55578015 343.546875 285.796875 C349.38196256 293.4360476 355.35867885 300.96688931 361.38305664 308.45727539 C366.15307933 314.38877635 370.83601442 320.37416316 375.4375 326.4375 C380.20367856 332.71631088 385.10501341 338.86239237 390.10498047 344.95605469 C395.76363591 351.87962644 401.17240532 358.9894228 406.55883789 366.12573242 C408.34018136 368.44241441 410.1744149 370.71801862 412 373 C412.33 249.91 412.66 126.82 413 0 C462.17 0 511.34 0 562 0 C562 211.2 562 422.4 562 640 C521.74 640 481.48 640 440 640 C424.99069767 621.7744186 424.99069767 621.7744186 417.77734375 612.52734375 C414.73516115 608.64382293 411.61947055 604.82152283 408.5 601 C403.99232786 595.47666343 399.55157233 589.90815403 395.1640625 584.2890625 C391.66223753 579.81563292 388.09188836 575.40132798 384.5 571 C379.99240027 565.47660315 375.55157358 559.90815564 371.1640625 554.2890625 C367.66223753 549.81563292 364.09188836 545.40132798 360.5 541 C355.99240027 535.47660315 351.55157358 529.90815564 347.1640625 524.2890625 C343.66223753 519.81563292 340.09188836 515.40132798 336.5 511 C331.99240027 505.47660315 327.55157358 499.90815564 323.1640625 494.2890625 C319.66223753 489.81563292 316.09188836 485.40132798 312.5 481 C307.99240027 475.47660315 303.55157358 469.90815564 299.1640625 464.2890625 C295.66223753 459.81563292 292.09188836 455.40132798 288.5 451 C283.99240027 445.47660315 279.55157358 439.90815564 275.1640625 434.2890625 C271.66223753 429.81563292 268.09188836 425.40132798 264.5 421 C259.99240027 415.47660315 255.55157358 409.90815564 251.1640625 404.2890625 C247.66223753 399.81563292 244.09188836 395.40132798 240.5 391 C235.99240027 385.47660315 231.55157358 379.90815564 227.1640625 374.2890625 C223.66223753 369.81563292 220.09188836 365.40132798 216.5 361 C211.99240027 355.47660315 207.55157358 349.90815564 203.1640625 344.2890625 C199.66223753 339.81563292 196.09188836 335.40132798 192.5 331 C187.99240027 325.47660315 183.55157358 319.90815564 179.1640625 314.2890625 C175.13011844 309.13587385 171.00074581 304.06330178 166.86230469 298.99389648 C162.62548998 293.79445816 158.46269217 288.54059908 154.33789062 283.25195312 C152.27475845 280.53469728 152.27475845 280.53469728 150 278 C149.67 397.46 149.34 516.92 149 640 C99.83 640 50.66 640 0 640 C0 428.8 0 217.6 0 0 Z " fill="#FE9D46" transform="translate(538,3)"/>
<path d="M0 0 C1.06858246 -0.00705963 2.13716492 -0.01411926 3.23812866 -0.02139282 C47.62434399 -0.24814696 47.62434399 -0.24814696 66.46484375 3.203125 C67.61807129 3.40711914 68.77129883 3.61111328 69.95947266 3.82128906 C120.93968123 13.03433741 168.02533132 34.91263271 208.46484375 67.203125 C209.87636719 68.30527344 209.87636719 68.30527344 211.31640625 69.4296875 C219.25455781 75.85979972 226.47940615 83.00555773 233.71484375 90.203125 C234.22858551 90.71159973 234.74232727 91.22007446 235.27163696 91.74395752 C242.14207761 98.55993727 248.44228904 105.61224416 254.46484375 113.203125 C255.44126001 114.37708037 256.4211535 115.54816264 257.40625 116.71484375 C270.538503 132.51339423 281.98008627 149.98240668 291.46484375 168.203125 C291.95791016 169.14381836 291.95791016 169.14381836 292.4609375 170.10351562 C294.52683698 174.07052494 296.5146173 178.06990501 298.45117188 182.1015625 C299.12387199 183.49621631 299.80481005 184.88692819 300.49414062 186.2734375 C335.52975207 256.99709264 340.95801066 342.94512125 318.46484375 418.203125 C318.18302246 419.1528418 317.90120117 420.10255859 317.61083984 421.08105469 C304.5943509 464.16268624 282.16705895 504.41565366 252.46484375 538.203125 C251.85382812 538.91339844 251.2428125 539.62367188 250.61328125 540.35546875 C248.91598128 542.32224525 247.19464202 544.26487324 245.46484375 546.203125 C244.67980469 547.09257813 243.89476563 547.98203125 243.0859375 548.8984375 C232.85301412 560.3686005 221.59102254 570.75561269 209.46484375 580.203125 C208.88541016 580.65510254 208.30597656 581.10708008 207.70898438 581.57275391 C156.12070714 621.6004457 92.64136123 648.13180952 26.7109375 648.40625 C25.61177505 648.41195007 24.51261261 648.41765015 23.38014221 648.42352295 C21.05983422 648.4329167 18.73951322 648.43948436 16.41918945 648.44335938 C12.96344903 648.45295532 9.50833299 648.48398802 6.05273438 648.515625 C-14.03286341 648.61132703 -33.9475712 646.91068587 -53.66015625 642.953125 C-54.7174292 642.74405518 -55.77470215 642.53498535 -56.86401367 642.31958008 C-100.24315685 633.40384895 -140.52328406 614.19491557 -175.53515625 587.203125 C-176.46714844 586.49027344 -177.39914063 585.77742187 -178.359375 585.04296875 C-180.78881478 583.13775591 -183.16527663 581.18182257 -185.53515625 579.203125 C-186.98921875 578.02556641 -186.98921875 578.02556641 -188.47265625 576.82421875 C-196.34066308 570.35404498 -203.63057839 563.32099557 -210.84765625 556.140625 C-211.76643555 555.23103027 -212.68521484 554.32143555 -213.63183594 553.38427734 C-219.69054344 547.29821923 -225.23378375 540.95670709 -230.53515625 534.203125 C-231.48249634 532.99837524 -231.48249634 532.99837524 -232.44897461 531.76928711 C-275.26918499 476.67543955 -304.4137203 406.57348887 -304.73828125 336.10546875 C-304.74529556 335.08118774 -304.75230988 334.05690674 -304.75953674 333.00158691 C-304.77694252 329.71455436 -304.78338892 326.42770194 -304.78515625 323.140625 C-304.78583099 322.01786163 -304.78650574 320.89509827 -304.78720093 319.73831177 C-304.77154208 303.35813447 -304.40422168 287.37065859 -301.53515625 271.203125 C-301.3635498 270.1925 -301.19194336 269.181875 -301.01513672 268.140625 C-293.8573145 226.79284767 -279.17034286 186.64532856 -256.53515625 151.203125 C-255.86226562 150.14867187 -255.189375 149.09421875 -254.49609375 148.0078125 C-252.55167802 145.0408355 -250.56011061 142.11567795 -248.53515625 139.203125 C-248.14859863 138.6452832 -247.76204102 138.08744141 -247.36376953 137.51269531 C-241.75525388 129.44586558 -235.87469777 121.71626759 -229.53515625 114.203125 C-228.72433594 113.20667969 -227.91351562 112.21023437 -227.078125 111.18359375 C-220.62809198 103.34709396 -213.62707281 96.08159069 -206.47265625 88.890625 C-205.10814331 87.51233521 -205.10814331 87.51233521 -203.71606445 86.10620117 C-197.62868809 80.0461838 -191.26640395 74.53321819 -184.53515625 69.203125 C-183.08722982 68.02995996 -181.63931246 66.85678373 -180.19140625 65.68359375 C-130.02058799 25.67802679 -64.51593927 0.28445206 0 0 Z M-87.53515625 166.203125 C-88.35242187 166.91082031 -89.1696875 167.61851562 -90.01171875 168.34765625 C-92.55577631 170.59635109 -95.05205354 172.88737874 -97.53515625 175.203125 C-98.33695313 175.93917969 -99.13875 176.67523438 -99.96484375 177.43359375 C-128.32867301 204.4834437 -143.71895153 243.33958779 -150.53515625 281.203125 C-150.70031738 282.10740234 -150.86547852 283.01167969 -151.03564453 283.94335938 C-155.66321512 310.53155192 -155.5571926 339.6916726 -150.53515625 366.203125 C-150.3635498 367.14075684 -150.19194336 368.07838867 -150.01513672 369.04443359 C-144.4641425 398.71422486 -133.78432065 427.89195444 -115.53515625 452.203125 C-114.87257813 453.09257812 -114.21 453.98203125 -113.52734375 454.8984375 C-111.59337849 457.39614972 -109.5946641 459.80799364 -107.53515625 462.203125 C-106.30539063 463.63398437 -106.30539063 463.63398437 -105.05078125 465.09375 C-79.19780024 494.52673976 -41.69800586 513.47007045 -2.53515625 516.203125 C2.54793876 516.3910466 7.62868621 516.44875437 12.71484375 516.453125 C13.42248871 516.45379974 14.13013367 516.45447449 14.85922241 516.45516968 C26.93169675 516.43696082 38.62712709 515.68499048 50.46484375 513.203125 C51.26631836 513.03683594 52.06779297 512.87054687 52.89355469 512.69921875 C91.09594291 504.43758894 123.8725115 479.55382872 145.171875 447.125 C178.26414215 395.43283655 187.91598025 330.748576 175.1171875 271.05224609 C167.42206682 237.44369132 152.96821474 206.54775684 129.3359375 181.23046875 C127.46484375 179.203125 127.46484375 179.203125 125.08984375 176.140625 C121.01696883 171.58288402 116.25936701 167.97339231 111.46484375 164.203125 C110.61535156 163.4915625 109.76585938 162.78 108.890625 162.046875 C54.99988459 118.61959222 -35.65707963 121.14179223 -87.53515625 166.203125 Z " fill="#FDCC0C" transform="translate(2365.53515625,-0.203125)"/>
<path d="M0 0 C145.53 0 291.06 0 441 0 C441 43.23 441 86.46 441 131 C344.31 131 247.62 131 148 131 C148 171.59 148 212.18 148 254 C231.16 254 314.32 254 400 254 C400 293.93 400 333.86 400 375 C316.84 375 233.68 375 148 375 C148 419.55 148 464.1 148 510 C247.66 510 347.32 510 450 510 C450 552.9 450 595.8 450 640 C301.5 640 153 640 0 640 C0 428.8 0 217.6 0 0 Z " fill="#FE8A5D" transform="translate(0,3)"/>
<path d="M0 0 C52.14 0 104.28 0 158 0 C170.45583605 37.36750816 170.45583605 37.36750816 175.35125732 52.79400635 C177.01721084 58.04167506 178.69208903 63.28649451 180.3671875 68.53125 C180.72942413 69.66547394 181.09166077 70.79969788 181.46487427 71.96829224 C186.14447237 86.60290348 190.89002448 101.21618616 195.63088226 115.83103943 C197.86399369 122.71525856 200.09640029 129.5997062 202.328125 136.484375 C202.57118755 137.23419899 202.81425011 137.98402298 203.06467819 138.75656891 C207.77469631 153.28859355 212.45618455 167.82968225 217.125 182.375 C223.29977399 201.61072709 229.49492877 220.8397525 235.70849228 240.06297684 C236.3737015 242.12098273 237.0388639 244.17900374 237.70401001 246.23703003 C239.2549463 251.03577606 240.80589339 255.83451861 242.35691261 260.63323784 C247.34532411 276.06695396 252.33123319 291.50147631 257.3125 306.9375 C257.52162647 307.58550442 257.73075294 308.23350883 257.94621658 308.90114975 C263.27713322 325.42032426 268.5883094 341.94565469 273.86843872 358.48114014 C280.72818286 379.96266118 287.64568242 401.4252854 294.58819199 422.88017654 C295.37119112 425.30072529 296.15353851 427.72148376 296.93569946 430.14230347 C298.16912779 433.95948139 299.40434105 437.77607716 300.64094353 441.59222794 C301.09985656 443.00929323 301.5581975 444.42654394 302.01593208 445.84399033 C302.64750329 447.79927568 303.2812401 449.75384627 303.91552734 451.70825195 C304.27141937 452.80764603 304.6273114 453.9070401 304.99398804 455.03974915 C305.91027127 457.73596779 306.91361512 460.3683976 308 463 C308.21423615 462.32636917 308.42847229 461.65273834 308.64920044 460.95869446 C319.08826074 428.13555355 329.53393552 395.3145412 340 362.5 C347.17538233 340.00276748 354.34256343 317.50294838 361.5 295 C368.8877557 271.77292932 376.28642326 248.54936128 383.69268799 225.32818604 C391.07130998 202.19350422 398.43972739 179.055598 405.79922485 155.91482544 C410.71751011 140.45018567 415.64031637 124.98700885 420.57421875 109.52734375 C421.04333555 108.0572833 421.51244667 106.58722105 421.98155212 105.11715698 C422.4503469 103.64809131 422.91914267 102.17902597 423.38793945 100.70996094 C423.61981555 99.98333063 423.85169165 99.25670033 424.09059429 98.50805092 C425.24894354 94.87822697 426.4074471 91.2484524 427.56625366 87.61877441 C432.52223547 72.0943135 437.46078112 56.5646688 442.3515625 41.01953125 C442.77936642 39.66051205 443.20718705 38.30149811 443.63502502 36.94248962 C445.6383888 30.57756831 447.63790412 24.21146675 449.6315918 17.84350586 C450.33372508 15.6091819 451.03594928 13.37488651 451.73828125 11.140625 C452.05693146 10.11826248 452.37558167 9.09589996 452.70388794 8.04255676 C452.99407806 7.1213353 453.28426819 6.20011383 453.58325195 5.25097656 C453.96003838 4.04758636 453.96003838 4.04758636 454.34443665 2.81988525 C455 1 455 1 456 0 C458.01228045 -0.09674566 460.02801369 -0.12187008 462.0426178 -0.12025452 C463.35660049 -0.12162918 464.67058319 -0.12300385 466.02438354 -0.12442017 C467.49420188 -0.12088054 468.96402 -0.11724573 470.43383789 -0.11352539 C471.97091164 -0.11324353 473.50798553 -0.11340123 475.0450592 -0.1139679 C479.2308286 -0.11425591 483.41656959 -0.10835852 487.60233235 -0.10139394 C491.97190156 -0.09516109 496.34147135 -0.09455666 500.71104431 -0.09336853 C508.99127047 -0.09025501 517.2714835 -0.08204135 525.55170387 -0.07201904 C534.97597159 -0.06085854 544.40023992 -0.05534761 553.8245126 -0.05032361 C573.21634919 -0.03985875 592.60817354 -0.02225891 612 0 C610.98202276 4.84990384 609.95103727 9.58711809 608.21020508 14.23852539 C607.86323074 15.17503433 607.51625641 16.11154327 607.1587677 17.07643127 C606.78281967 18.07343552 606.40687164 19.07043976 606.01953125 20.09765625 C605.61913132 21.17510605 605.21873138 22.25255585 604.80619812 23.36265564 C603.9368269 25.70123734 603.06497541 28.03889818 602.19091797 30.37573242 C599.79722933 36.7779804 597.42401966 43.18780528 595.05078125 49.59765625 C594.80298542 50.26639393 594.55518959 50.93513161 594.2998848 51.62413406 C588.83579651 66.37500748 583.51806457 81.1771707 578.21975327 95.98823166 C570.75071943 116.86478274 563.19598773 137.70572371 555.5 158.5 C548.03621962 178.66983301 540.69406973 198.87996155 533.4375 219.125 C533.07574047 220.13421886 533.07574047 220.13421886 532.70667267 221.16382599 C532.22031197 222.52066402 531.73395714 223.87750415 531.24760818 225.23434639 C530.04154478 228.59900043 528.83531213 231.96359374 527.62890625 235.328125 C527.273125 236.32043436 527.273125 236.32043436 526.91015625 237.33279037 C521.13054934 253.44941168 515.27645182 269.53877346 509.41552734 285.62597656 C508.59599246 287.87563786 507.77649378 290.12531235 506.95703125 292.375 C506.5514801 293.48832703 506.14592896 294.60165405 505.72808838 295.74871826 C502.74864077 303.93250555 499.78329753 312.12132772 496.82421875 320.3125 C487.74005341 345.45546531 478.59419931 370.57292702 469.32254028 395.6473999 C462.02189408 415.40212974 454.87102956 435.20760845 447.77127838 455.03510284 C440.77928952 474.56050827 433.69883137 494.04961117 426.5 513.5 C418.86621048 534.12697542 411.36202618 554.79701034 403.9375 575.5 C403.44423755 576.87517413 402.95097178 578.25034707 402.45770264 579.6255188 C400.57392951 584.87764914 398.69064019 590.12995282 396.80792236 595.38246155 C393.34691477 605.03702106 389.88154568 614.68995442 386.38723755 624.33251953 C385.88575893 625.71739318 385.385303 627.10263765 384.88595581 628.48828125 C384.23134235 630.30435523 383.57285501 632.11903157 382.9140625 633.93359375 C382.5629541 634.90353271 382.2118457 635.87347168 381.85009766 636.87280273 C381 639 381 639 380 640 C378.11438482 640.09654727 376.22510545 640.12187241 374.33702087 640.12025452 C373.10717972 640.12162918 371.87733856 640.12300385 370.61022949 640.12442017 C369.23486304 640.12088056 367.85949683 640.11724574 366.48413086 640.11352539 C365.04557802 640.11324352 363.60702504 640.11340124 362.16847229 640.1139679 C358.25128857 640.11425589 354.33413521 640.10835884 350.41695857 640.10139394 C346.32766163 640.09516074 342.23836407 640.09455663 338.14906311 640.09336853 C330.40007602 640.09025511 322.65110297 640.08204159 314.90212208 640.07201904 C306.08243791 640.06085822 297.26275309 640.05534753 288.44306362 640.05032361 C270.29536777 640.03985898 252.14768501 640.02225934 234 640 C215.12118416 588.63615283 215.12118416 588.63615283 207.55273438 567.88598633 C201.05833612 550.08211764 194.54017532 532.28709967 188 514.5 C181.41008513 496.57762531 174.84682828 478.64566598 168.29821777 460.7081604 C162.63404623 445.19441291 156.95061943 429.68788906 151.25 414.1875 C144.05547371 394.62467528 136.90127163 375.04729469 129.75790405 355.46575165 C122.74733433 336.24857088 115.71753185 317.03864287 108.65673828 297.83984375 C102.51405141 281.13657698 96.40038466 264.42284681 90.29711914 247.70513916 C84.63331307 232.19239904 78.95024954 216.6868833 73.25 201.1875 C66.05547371 181.62467528 58.90127163 162.04729469 51.75790405 142.46575165 C45.10916606 124.24041406 38.44566762 106.02066429 31.75 87.8125 C25.788109 71.59575858 19.8311395 55.37722844 13.89318848 39.15170288 C13.05941455 36.87415338 12.22504076 34.59682337 11.39001465 32.31973267 C10.22969021 29.15517121 9.07160722 25.98979787 7.9140625 22.82421875 C7.57631805 21.90446259 7.23857361 20.98470642 6.89059448 20.03707886 C4.46451303 13.39156732 2.23966413 6.7189924 0 0 Z " fill="#FEB02E" transform="translate(1157,3)"/>
<path d="M0 0 C48.84 0 97.68 0 148 0 C148 211.2 148 422.4 148 640 C99.16 640 50.32 640 0 640 C0 428.8 0 217.6 0 0 Z " fill="#FDBE1E" transform="translate(1828,3)"/>
</svg>
