<?xml version="1.0" encoding="UTF-8"?>
<svg version="1.1" xmlns="http://www.w3.org/2000/svg" width="400" height="400">
<path d="M0 0 C132 0 264 0 400 0 C400 132 400 264 400 400 C268 400 136 400 0 400 C0 268 0 136 0 0 Z " fill="#000000" transform="translate(0,0)"/>
<path d="M0 0 C11.23809504 6.63231838 17.09113217 15.64839651 21.1875 27.9375 C22.16449174 39.8215635 20.78239361 51.75601867 12.8828125 61.1640625 C4.49111012 69.94247928 -4.58355293 75.84288541 -17.0625 76.25 C-28.54855792 75.96716957 -37.31266712 72.12981391 -45.62890625 64.20703125 C-53.12695534 55.99488224 -57.52461099 44.6300413 -57.08984375 33.5 C-55.88528967 22.37059891 -51.22227173 12.80339228 -43.0625 5.0625 C-30.92686307 -4.47592675 -14.11595641 -7.18986678 0 0 Z " fill="#F8C80C" transform="translate(345.8125,163.0625)"/>
<path d="M0 0 C15 0 15 0 19.17578125 3.26171875 C20.26967079 4.70151793 21.31461805 6.17957174 22.3125 7.6875 C22.88460205 8.46262939 23.4567041 9.23775879 24.04614258 10.03637695 C25.19788958 11.60242376 26.33049954 13.18274683 27.44238281 14.77734375 C29.1593546 17.22739251 30.96633659 19.58662177 32.81787109 21.93554688 C34.90400611 24.60401477 36.94644667 27.3063781 39 30 C42.63 34.62 46.26 39.24 50 44 C50.33 29.48 50.66 14.96 51 0 C56.94 0 62.88 0 69 0 C69 25.74 69 51.48 69 78 C54 78 54 78 49.75 74.375 C48.46720103 72.60666851 47.22033019 70.81200543 46 69 C44.75197707 67.37288302 43.47454179 65.77181092 42.19433594 64.16992188 C40.78806835 62.40686979 39.40269553 60.62887402 38.01953125 58.84765625 C34.1955465 53.94893186 30.261501 49.14023046 26.32739258 44.32983398 C25.80685303 43.69247314 25.28631348 43.0551123 24.75 42.3984375 C24.29109375 41.83817871 23.8321875 41.27791992 23.359375 40.70068359 C21.86578859 38.83209112 20.4352971 36.91372946 19 35 C18.67 49.19 18.34 63.38 18 78 C12.06 78 6.12 78 0 78 C0 52.26 0 26.52 0 0 Z " fill="#FA9A45" transform="translate(103,160)"/>
<path d="M0 0 C17.82 0 35.64 0 54 0 C54 5.28 54 10.56 54 16 C42.12 16 30.24 16 18 16 C18 20.95 18 25.9 18 31 C28.23 31 38.46 31 49 31 C49 35.62 49 40.24 49 45 C39.1 45.33 29.2 45.66 19 46 C18.67 51.28 18.34 56.56 18 62 C30.21 62 42.42 62 55 62 C55 67.28 55 72.56 55 78 C36.85 78 18.7 78 0 78 C0 52.26 0 26.52 0 0 Z " fill="#FA875C" transform="translate(37,160)"/>
<path d="M0 0 C6.27 0 12.54 0 19 0 C22.23450515 7.781882 24.90362112 15.65286562 27.4375 23.6875 C28.2273573 26.16682833 29.0177179 28.64599638 29.80859375 31.125 C30.18483887 32.30707031 30.56108398 33.48914063 30.94873047 34.70703125 C32.2790064 38.87395223 33.62659008 43.03460763 35 47.1875 C35.37125 48.31542969 35.7425 49.44335938 36.125 50.60546875 C36.78044863 52.92093577 36.78044863 52.92093577 38 54 C38.37286133 52.79053711 38.74572266 51.58107422 39.12988281 50.33496094 C40.53004392 45.79449876 41.93200349 41.25459349 43.33447266 36.71484375 C43.93814409 34.75991419 44.541345 32.80483927 45.14404297 30.84960938 C48.32559018 20.52936667 51.52276218 10.22514489 55 0 C61.27 0 67.54 0 74 0 C72.65028025 6.07373889 71.26044154 11.46562871 69.0625 17.1875 C68.43816499 18.84741676 67.81451676 20.50759194 67.19140625 22.16796875 C66.67344482 23.54154541 66.67344482 23.54154541 66.14501953 24.94287109 C64.13926913 30.29809635 62.18077267 35.67070482 60.21670532 41.0413208 C59.2673274 43.63586939 58.31558608 46.22954823 57.36387634 48.82324219 C55.49454149 53.91780429 53.62947404 59.01385913 51.7734375 64.11328125 C51.44794922 65.00466797 51.12246094 65.89605469 50.78710938 66.81445312 C50.19502383 68.43603217 49.60505444 70.05838603 49.01757812 71.68164062 C47.1129122 76.8870878 47.1129122 76.8870878 46 78 C44.65732587 78.08631874 43.31025678 78.10706473 41.96484375 78.09765625 C41.15595703 78.09443359 40.34707031 78.09121094 39.51367188 78.08789062 C38.66353516 78.07951172 37.81339844 78.07113281 36.9375 78.0625 C36.08349609 78.05798828 35.22949219 78.05347656 34.34960938 78.04882812 C32.23304337 78.03700373 30.11651315 78.01906769 28 78 C27.75580322 77.30181152 27.51160645 76.60362305 27.26000977 75.88427734 C20.21957717 55.80046618 12.90845855 35.82310562 5.48852539 15.87646484 C5.12490906 14.89736145 4.76129272 13.91825806 4.38665771 12.90948486 C3.69618809 11.05066343 3.00430696 9.19236556 2.31085205 7.33465576 C1.85304352 6.10189911 1.85304352 6.10189911 1.38598633 4.84423828 C1.11716141 4.12277618 0.84833649 3.40131409 0.57136536 2.6579895 C0 1 0 1 0 0 Z " fill="#FAAE2E" transform="translate(179,160)"/>
<path d="M0 0 C5.4288874 2.47633461 9.46391578 6.68820243 11.9765625 12.10546875 C15.05059877 20.45133357 14.59132292 27.15364684 11.4140625 35.37109375 C8.85697051 40.12502444 4.81167974 43.59416013 0 46 C-13.08587676 47.35667226 -13.08587676 47.35667226 -18.5625 43.625 C-25.0186278 37.64093316 -27.29364186 31.14001125 -27.625 22.4375 C-27.35248076 14.93565101 -25.69988851 9.74511942 -20.40234375 4.3828125 C-14.11731446 -1.08377317 -8.0604063 -0.65255285 0 0 Z " fill="#020200" transform="translate(335,176)"/>
<path d="M0 0 C5.94 0 11.88 0 18 0 C18 25.74 18 51.48 18 78 C12.06 78 6.12 78 0 78 C0 52.26 0 26.52 0 0 Z " fill="#FDBD1E" transform="translate(261,160)"/>
</svg>
