<?xml version="1.0" encoding="UTF-8"?>
<svg version="1.1" xmlns="http://www.w3.org/2000/svg" width="459" height="145">
<path d="M0 0 C13.86 0 27.72 0 42 0 C48.93 25.41 55.86 50.82 63 77 C63.33 51.59 63.66 26.18 64 0 C75.55 0 87.1 0 99 0 C99 45.87 99 91.74 99 139 C85.47 139 71.94 139 58 139 C56.22625 132.8125 54.4525 126.625 52.625 120.25 C52.08955566 118.38504883 51.55411133 116.52009766 51.00244141 114.59863281 C45.89769584 96.75960211 40.96677752 78.88039908 36 61 C35.67 86.74 35.34 112.48 35 139 C23.45 139 11.9 139 0 139 C0 93.13 0 47.26 0 0 Z " fill="#FE9E45" transform="translate(97,3)"/>
<path d="M0 0 C13.61223684 13.10097912 16.22029965 32.08277161 16.79907227 50.25268555 C17.6466946 106.16273519 17.6466946 106.16273519 1.87890625 123.76953125 C-7.82988097 133.04855324 -20.83418548 134.83234825 -33.8203125 134.78515625 C-47.00122698 134.46264897 -59.7065086 132.58933532 -69.3125 122.75 C-87.04324642 101.36179019 -85.06695592 65.96756344 -82.79882812 40.00830078 C-81.21597072 25.30146245 -77.70723629 9.91996597 -66.5546875 -0.49609375 C-48.89254383 -14.31195178 -17.154091 -14.72160542 0 0 Z M-42.3125 20.75 C-46.67135544 32.73685246 -45.47439986 47.08577655 -45.44287109 59.69970703 C-45.43750741 62.24647979 -45.44285306 64.79307627 -45.44921875 67.33984375 C-46.64791068 89.14944902 -46.64791068 89.14944902 -39 108.375 C-35.71875742 110.05377527 -33.95144284 110.35649047 -30.3125 109.75 C-26.31190543 107.70318418 -24.93486221 105.3737164 -23.5625 101.25 C-20.7077363 89.71771276 -21.12615128 77.69419943 -21.12719727 65.88916016 C-21.12502083 63.15120649 -21.10683195 60.41366353 -21.08789062 57.67578125 C-21.05889292 49.00751905 -21.25218518 40.41690736 -22.13671875 31.7890625 C-22.20607132 31.06326996 -22.27542389 30.33747742 -22.34687805 29.58969116 C-22.87187944 25.0991945 -23.94062479 21.60398329 -26.3125 17.75 C-32.5738844 13.57574373 -38.07590643 14.76892673 -42.3125 20.75 Z " fill="#FDCD0B" transform="translate(442.3125,10.25)"/>
<path d="M0 0 C12.87 0 25.74 0 39 0 C40.22237369 6.7230553 41.40029421 13.38442129 42.32861328 20.14331055 C42.44594818 20.98372391 42.56328308 21.82413727 42.68417358 22.6900177 C43.06505439 25.4219548 43.4427171 28.1543258 43.8203125 30.88671875 C44.08629664 32.79916626 44.35248447 34.71158546 44.61886597 36.62397766 C45.31462889 41.62291953 46.00764925 46.62223777 46.70007324 51.62164307 C47.40904995 56.73692732 48.12065557 61.85184579 48.83203125 66.96679688 C50.22390801 76.97751098 51.61288383 86.98862522 53 97 C54.41410284 91.0284162 55.50571618 85.08963085 56.31274414 79.0078125 C56.42847275 78.15954391 56.54420135 77.31127533 56.66343689 76.43730164 C56.91170707 74.61407716 57.15826341 72.79061861 57.40324593 70.96694946 C57.79068976 68.08382292 58.18298263 65.20139213 58.57652283 62.3190918 C59.55148116 55.1714468 60.51858868 48.02274455 61.48516846 40.8739624 C62.30526097 34.81020855 63.12867479 28.74692524 63.95681572 22.68426514 C64.34405695 19.83894643 64.72629653 16.99298336 65.1084137 14.14697266 C65.34423786 12.41695745 65.58030329 10.6869751 65.81665039 8.95703125 C65.92212189 8.16125168 66.02759338 7.36547211 66.13626099 6.545578 C66.88613125 1.11386875 66.88613125 1.11386875 68 0 C70.8843382 -0.08865208 73.74462158 -0.11521296 76.62890625 -0.09765625 C77.92525246 -0.09553383 77.92525246 -0.09553383 79.24778748 -0.09336853 C82.01939292 -0.08775239 84.7909188 -0.07519719 87.5625 -0.0625 C89.4368478 -0.05748708 91.31119685 -0.05292381 93.18554688 -0.04882812 C97.79039544 -0.03777772 102.39518421 -0.0205023 107 0 C105.68657948 8.32929345 104.09907985 16.56580205 102.31030273 24.80517578 C102.04827057 26.02291183 101.7862384 27.24064789 101.51626587 28.49528503 C100.80564196 31.79465401 100.09252467 35.09346306 99.3780582 38.39200068 C98.62809129 41.85665555 97.88093091 45.32191585 97.13331604 48.78707886 C95.88036933 54.59221508 94.62507446 60.39683979 93.3684082 66.20117188 C91.91539026 72.91258678 90.46639689 79.62486136 89.01944965 86.33758748 C87.62407469 92.81051199 86.22565503 99.28277519 84.82591438 105.75475693 C84.23119452 108.50489114 83.63759072 111.25526274 83.04488945 114.00583267 C82.2198017 117.83415342 81.39028816 121.66150746 80.56030273 125.48876953 C80.19170387 127.20296837 80.19170387 127.20296837 79.81565857 128.95179749 C79.58999207 129.98897415 79.36432556 131.02615082 79.13182068 132.09475708 C78.93623282 132.99912066 78.74064497 133.90348423 78.53913021 134.83525276 C78 137 78 137 77 139 C61.16 139 45.32 139 29 139 C25.36518597 121.76285935 21.73142106 104.52549868 18.09957218 87.28773308 C16.41317716 79.28379974 14.72631053 71.27996633 13.03833008 63.27636719 C11.56694385 56.29974874 10.09644614 49.32294372 8.62701124 42.34591401 C7.84906226 38.6522847 7.07067127 34.95874981 6.2912159 31.26543808 C5.5571657 27.78720128 4.82430631 24.30871569 4.0923481 20.83003807 C3.69619237 18.94880472 3.29878464 17.06783515 2.90133667 15.18687439 C2.66436569 14.05954391 2.42739471 12.93221344 2.1832428 11.77072144 C1.97768296 10.79546446 1.77212313 9.82020748 1.56033421 8.81539726 C0.97784034 5.88865885 0.49058974 2.94353844 0 0 Z " fill="#FEB12D" transform="translate(201,3)"/>
<path d="M0 0 C27.39 0 54.78 0 83 0 C83 9.9 83 19.8 83 30 C67.82 30 52.64 30 37 30 C37 37.59 37 45.18 37 53 C51.19 53 65.38 53 80 53 C80 62.57 80 72.14 80 82 C65.81 82 51.62 82 37 82 C37 90.91 37 99.82 37 109 C52.84 109 68.68 109 85 109 C85 118.9 85 128.8 85 139 C56.95 139 28.9 139 0 139 C0 93.13 0 47.26 0 0 Z " fill="#FE8A5D" transform="translate(0,3)"/>
<path d="M0 0 C12.21 0 24.42 0 37 0 C37 45.87 37 91.74 37 139 C24.79 139 12.58 139 0 139 C0 93.13 0 47.26 0 0 Z " fill="#FDBF1D" transform="translate(311,3)"/>
</svg>
