<?xml version="1.0" encoding="UTF-8"?>
<svg version="1.1" xmlns="http://www.w3.org/2000/svg" width="400" height="400">
<path d="M0 0 C15 0 15 0 18.95703125 3.04296875 C19.95773368 4.38949485 20.9089956 5.77391672 21.8125 7.1875 C22.33763184 7.91565918 22.86276367 8.64381836 23.40380859 9.39404297 C24.46869709 10.87415066 25.51470407 12.36804246 26.54052734 13.87548828 C28.19055398 16.27738387 29.94335269 18.57425834 31.74536133 20.86303711 C32.96065351 22.41510996 34.15905422 23.98037754 35.35473633 25.54760742 C38.13739878 29.19143213 40.96805809 32.79655586 43.8046875 36.3984375 C44.30734131 37.03740967 44.80999512 37.67638184 45.32788086 38.3347168 C46.5515369 39.89011312 47.77571346 41.44509992 49 43 C49.03758423 41.09939819 49.03758423 41.09939819 49.07592773 39.16040039 C49.16981996 34.47702221 49.27008435 29.7937987 49.37231445 25.1105957 C49.41573241 23.08035896 49.45740226 21.05008408 49.49731445 19.01977539 C49.55485146 16.10811849 49.61859278 13.19665486 49.68359375 10.28515625 C49.70866249 8.91485008 49.70866249 8.91485008 49.73423767 7.51686096 C49.88612829 1.11387171 49.88612829 1.11387171 51 0 C56.94 0 62.88 0 69 0 C69 26.07 69 52.14 69 79 C53 79 53 79 48.76171875 75.7734375 C47.68541726 74.34471432 46.6612029 72.87552573 45.6875 71.375 C45.12466309 70.60534912 44.56182617 69.83569824 43.98193359 69.04272461 C42.83527912 67.47210931 41.70828256 65.88694132 40.60205078 64.28759766 C38.25113958 60.93068849 35.688089 57.75809833 33.125 54.5625 C32.32320312 53.53253906 31.52140625 52.50257813 30.6953125 51.44140625 C27.16481104 46.93362105 23.57686703 42.47108378 20 38 C19.67 51.53 19.34 65.06 19 79 C12.73 79 6.46 79 0 79 C0 52.93 0 26.86 0 0 Z " fill="#FE9D46" transform="translate(103,159)"/>
<path d="M0 0 C8.73690056 6.3846581 14.73535115 14.93742777 17.4609375 25.45703125 C19.05571037 37.77049071 17.64687057 48.96996255 10.2734375 59.20703125 C3.64209992 67.13055667 -4.24064927 72.76779512 -14.5390625 74.45703125 C-27.44450661 75.27642453 -36.66897747 73.75486202 -46.9921875 65.75 C-55.1708552 58.38669027 -59.72122039 48.91035527 -60.91796875 38.00390625 C-61.27871445 27.43754825 -59.15570153 17.60398284 -52.296875 9.33203125 C-38.26583143 -5.63441522 -18.65550217 -11.33680516 0 0 Z M-37.47265625 19.6953125 C-41.43932977 26.24831527 -42.56092453 33.22804355 -41.10546875 40.67578125 C-39.20501842 47.56934019 -35.25133349 53.04907169 -29.2265625 56.95703125 C-22.58090072 58.19343344 -16.37461794 58.33164072 -10.36328125 54.9296875 C-5.93783411 51.35711026 -2.50337292 46.09453831 -1.5390625 40.45703125 C-0.88962881 31.71465464 -1.59309949 25.25785986 -6.2265625 17.70703125 C-10.7235117 13.33162122 -15.30307792 11.23504655 -21.6015625 10.95703125 C-28.45653584 11.27244413 -33.24514092 14.15629076 -37.47265625 19.6953125 Z " fill="#FDCC0C" transform="translate(349.5390625,164.54296875)"/>
<path d="M0 0 C18.15 0 36.3 0 55 0 C55 5.61 55 11.22 55 17 C43.12 17 31.24 17 19 17 C19 21.62 19 26.24 19 31 C29.23 31 39.46 31 50 31 C50 36.28 50 41.56 50 47 C39.77 47 29.54 47 19 47 C19 52.28 19 57.56 19 63 C31.21 63 43.42 63 56 63 C56 68.28 56 73.56 56 79 C37.52 79 19.04 79 0 79 C0 52.93 0 26.86 0 0 Z " fill="#FE8A5D" transform="translate(37,159)"/>
<path d="M0 0 C6.27 0 12.54 0 19 0 C22.375 7.875 22.375 7.875 23.7175293 12.01733398 C24.01761398 12.93775986 24.31769867 13.85818573 24.62687683 14.8065033 C24.93949966 15.77656815 25.2521225 16.746633 25.57421875 17.74609375 C25.90291458 18.75720718 26.23161041 19.76832062 26.57026672 20.81007385 C27.61241089 24.01823039 28.65001959 27.2278326 29.6875 30.4375 C30.39618469 32.62184204 31.10516592 34.8060879 31.81445312 36.99023438 C33.54640271 42.32571437 35.27463766 47.66238645 37 53 C38.84899788 50.22650318 39.70119581 48.20337511 40.69580078 45.06958008 C41.01598175 44.06876907 41.33616272 43.06795807 41.66604614 42.03681946 C42.00570404 40.95861435 42.34536194 39.88040924 42.6953125 38.76953125 C43.04761932 37.66397385 43.39992615 36.55841644 43.76290894 35.4193573 C44.88803676 31.88512913 46.0065885 28.34885862 47.125 24.8125 C47.88628683 22.41718039 48.64800028 20.02199633 49.41015625 17.62695312 C51.27839303 11.75286393 53.14073437 5.8769346 55 0 C61.6 0 68.2 0 75 0 C74.27196022 4.36823866 73.55355925 7.61666849 72.05395508 11.65966797 C71.65296097 12.74875458 71.25196686 13.83784119 70.83882141 14.95993042 C70.40345566 16.12557526 69.9680899 17.29122009 69.51953125 18.4921875 C69.0690593 19.7109256 68.61858734 20.9296637 68.15446472 22.18533325 C66.95647319 25.42613057 65.75203998 28.6644969 64.54626465 31.90240479 C63.34128248 35.14178415 62.1426427 38.38350753 60.94335938 41.625 C56.32694903 54.09509411 51.68101087 66.55401815 47 79 C40.73 79 34.46 79 28 79 C24.68712116 71.18367648 21.59282194 63.34557198 18.75 55.34765625 C18.3694043 54.28566513 17.98880859 53.22367401 17.59667969 52.12950134 C16.39486798 48.77486986 15.19713971 45.41880127 14 42.0625 C12.41863215 37.6360134 10.83491393 33.21037426 9.25 28.78515625 C8.68792847 27.21152817 8.68792847 27.21152817 8.11450195 25.60610962 C5.7945674 19.13376377 3.38538016 12.71584853 0.77734375 6.35327148 C0 4 0 4 0 0 Z " fill="#FEB02E" transform="translate(179,159)"/>
<path d="M0 0 C5.94 0 11.88 0 18 0 C18 26.07 18 52.14 18 79 C11.73 79 5.46 79 -1 79 C-1.02255146 68.84733453 -1.04091534 58.69468557 -1.05181217 48.54200077 C-1.05704089 43.82820267 -1.06413834 39.11442253 -1.07543945 34.40063477 C-1.08626873 29.85544596 -1.09227692 25.31027448 -1.09487724 20.76507378 C-1.09673142 19.02705042 -1.10035189 17.28902806 -1.10573006 15.55101204 C-1.11294103 13.12521405 -1.11399092 10.69948854 -1.11352539 8.27368164 C-1.11712067 7.54791931 -1.12071594 6.82215698 -1.12442017 6.07440186 C-1.11405216 1.11405216 -1.11405216 1.11405216 0 0 Z " fill="#FDBE1E" transform="translate(261,159)"/>
</svg>
