<?xml version="1.0" encoding="UTF-8"?>
<svg version="1.1" xmlns="http://www.w3.org/2000/svg" width="500" height="500">
<path d="M0 0 C11.22 0 22.44 0 34 0 C40.2934034 21.25771814 46.14824834 42.61582109 52 64 C52.33 42.88 52.66 21.76 53 0 C62.24 0 71.48 0 81 0 C81 37.95 81 75.9 81 115 C70.11 115 59.22 115 48 115 C46.23301708 110.28804555 44.60437515 105.92525696 43.2824707 101.13476562 C42.97829224 100.03938477 42.67411377 98.94400391 42.36071777 97.81542969 C42.05218872 96.69040039 41.74365967 95.56537109 41.42578125 94.40625 C41.13392944 93.35276367 40.84207764 92.29927734 40.54138184 91.21386719 C39.46111263 87.31034273 38.38717293 83.40506886 37.3125 79.5 C34.899375 70.755 32.48625 62.01 30 53 C29.67 73.46 29.34 93.92 29 115 C19.43 115 9.86 115 0 115 C0 77.05 0 39.1 0 0 Z " fill="#FEA141" transform="translate(142,195)"/>
<path d="M0 0 C9.82372085 8.89802407 13.46529481 21.94734212 14.13839722 34.90202332 C14.19525985 37.18380943 14.22212367 39.46362993 14.234375 41.74609375 C14.24007507 42.58845581 14.24577515 43.43081787 14.25164795 44.29870605 C14.26105351 46.07705448 14.26761415 47.85541998 14.27148438 49.63378906 C14.28112195 52.30436168 14.31215943 54.97414093 14.34375 57.64453125 C14.44379141 73.53356372 13.63556305 91.68833015 2.04296875 103.94140625 C-9.37730139 112.94457067 -23.08802576 112.76504863 -36.96875 111.83984375 C-46.02031177 110.68633692 -53.14576255 106.86884743 -58.96875 99.83984375 C-72.22772397 80.35115086 -70.31535165 46.99400494 -66.30419922 24.7956543 C-63.98231052 13.34575956 -59.76954698 4.34804009 -49.921875 -2.60546875 C-47.96423844 -3.66259249 -46.07646524 -4.45209566 -43.96875 -5.16015625 C-43.0096875 -5.49273437 -43.0096875 -5.49273437 -42.03125 -5.83203125 C-28.69349805 -9.57064354 -11.28480934 -8.36138953 0 0 Z M-31.78125 15.27734375 C-37.10918662 21.51864093 -36.27590059 30.3483854 -36.26953125 38.1171875 C-36.27381638 39.28310928 -36.2781015 40.44903107 -36.28251648 41.65028381 C-36.28823916 44.10693718 -36.28877532 46.56360749 -36.28442383 49.02026367 C-36.28126309 52.76185208 -36.30475293 56.50264973 -36.33007812 60.24414062 C-36.33235136 62.63932193 -36.3330545 65.03450534 -36.33203125 67.4296875 C-36.341241 68.53932358 -36.35045074 69.64895966 -36.35993958 70.79222107 C-36.32221705 77.17916014 -35.88260739 83.04824047 -32.96875 88.83984375 C-30.23437884 91.28638637 -28.99321769 91.88862793 -25.34375 91.71484375 C-22.69248638 90.73806242 -21.62088913 90.12136922 -19.96875 87.83984375 C-16.72261094 80.26551927 -16.81225109 71.78695775 -16.80078125 63.66796875 C-16.79745285 62.82369324 -16.79412445 61.97941772 -16.79069519 61.10955811 C-16.78566747 59.33476296 -16.78328557 57.55995851 -16.78344727 55.78515625 C-16.78126685 53.11051364 -16.76308303 50.43628837 -16.74414062 47.76171875 C-16.04537161 30.46626926 -16.04537161 30.46626926 -21.96875 14.83984375 C-26.0001652 13.57069452 -27.98783601 13.33848771 -31.78125 15.27734375 Z " fill="#FDC614" transform="translate(425.96875,200.16015625)"/>
<path d="M0 0 C22.77 0 45.54 0 69 0 C69 8.25 69 16.5 69 25 C68 26 68 26 64.48999023 26.11352539 C62.92951578 26.11336626 61.36903607 26.10767142 59.80859375 26.09765625 C58.98875504 26.0962413 58.16891632 26.09482635 57.32423401 26.09336853 C54.69528618 26.08775289 52.06642227 26.07519779 49.4375 26.0625 C47.65950643 26.05748701 45.88151154 26.05292376 44.10351562 26.04882812 C39.73561842 26.03862752 35.3679036 26.01905532 31 26 C31 31.94 31 37.88 31 44 C42.55 44 54.1 44 66 44 C66 51.92 66 59.84 66 68 C54.45 68 42.9 68 31 68 C31 75.26 31 82.52 31 90 C43.87 90 56.74 90 70 90 C70 98.25 70 106.5 70 115 C46.9 115 23.8 115 0 115 C0 77.05 0 39.1 0 0 Z " fill="#FE9253" transform="translate(62,195)"/>
<path d="M0 0 C10.56 0 21.12 0 32 0 C32.92168291 6.30679654 33.84310649 12.61362987 34.76385498 18.92056274 C35.08701554 21.13377641 35.41029771 23.34697232 35.73370361 25.56015015 C38.91377929 47.32518533 38.91377929 47.32518533 40.3203125 57.31640625 C40.50303711 58.61223633 40.68576172 59.90806641 40.87402344 61.24316406 C41.20010012 63.566381 41.52379295 65.88993419 41.84472656 68.21386719 C41.98620117 69.22223633 42.12767578 70.23060547 42.2734375 71.26953125 C42.39122559 72.12135986 42.50901367 72.97318848 42.63037109 73.85083008 C42.97439918 76.17461744 42.97439918 76.17461744 44 79 C47.63 52.93 51.26 26.86 55 0 C65.89 0 76.78 0 88 0 C86.72800675 7.63195951 85.40472552 15.16121145 83.76928711 22.7097168 C83.44939064 24.20223213 83.44939064 24.20223213 83.12303162 25.72489929 C82.42731197 28.96695784 81.72752491 32.20812106 81.02734375 35.44921875 C80.53921579 37.71650806 80.05122668 39.98382728 79.56336975 42.25117493 C78.545673 46.97767207 77.52587132 51.70370899 76.50463867 56.42944336 C75.1931685 62.49938135 73.88769651 68.57059195 72.58383846 74.642169 C71.58021306 79.31195964 70.57312757 83.98099882 69.56500435 88.64982033 C69.08180159 90.88998422 68.5997688 93.13040079 68.11890984 95.37106895 C67.44995096 98.48603791 66.77627576 101.59994921 66.10131836 104.71362305 C65.90233948 105.64495056 65.7033606 106.57627808 65.49835205 107.53582764 C65.22295845 108.79924232 65.22295845 108.79924232 64.94200134 110.08818054 C64.78328521 110.823856 64.62456907 111.55953146 64.46104336 112.31750011 C64 114 64 114 63 115 C60.1156618 115.08865208 57.25537842 115.11521296 54.37109375 115.09765625 C53.07474754 115.09553383 53.07474754 115.09553383 51.75221252 115.09336853 C48.98060708 115.08775239 46.2090812 115.07519719 43.4375 115.0625 C41.5631522 115.05748708 39.68880315 115.05292381 37.81445312 115.04882812 C33.20960456 115.03777772 28.60481579 115.0205023 24 115 C20.70672312 102.34087209 17.92379611 89.59628643 15.234375 76.796875 C14.79183284 74.69937108 14.34914211 72.60189851 13.90631104 70.50445557 C12.98662918 66.14483142 12.069197 61.78474147 11.15332031 57.42431641 C9.97902113 51.83481222 8.79826331 46.24669419 7.61577988 40.65891647 C6.70362141 36.34447255 5.7952009 32.02924813 4.88788605 27.71378326 C4.45373647 25.65141944 4.01833564 23.58931861 3.58165741 21.52748871 C2.97473044 18.65942094 2.37292995 15.79032417 1.77246094 12.92089844 C1.59173035 12.0720961 1.41099976 11.22329376 1.22479248 10.34877014 C0.98103882 9.17618904 0.98103882 9.17618904 0.73236084 7.97991943 C0.59006924 7.30382504 0.44777763 6.62773064 0.30117416 5.93114853 C0 4 0 4 0 0 Z " fill="#FEB02E" transform="translate(228,195)"/>
<path d="M0 0 C9.9 0 19.8 0 30 0 C30 37.95 30 75.9 30 115 C20.1 115 10.2 115 0 115 C0 77.05 0 39.1 0 0 Z " fill="#FDBA22" transform="translate(319,195)"/>
</svg>
